<svg xmlns="http://www.w3.org/2000/svg" xmlns:xlink="http://www.w3.org/1999/xlink" width="500" height="500" viewBox="0 0 500 500"><defs><svg xmlns="http://www.w3.org/2000/svg" fill="none" viewBox="0 0 160 160" height="160" width="160" id="a"><path fill="#1F1F1F" d="M62 14.5C62 22.508 55.508 29 47.5 29S33 22.508 33 14.5 39.492 0 47.5 0 62 6.492 62 14.5ZM128 14.5c0 8.008-6.492 14.5-14.5 14.5S99 22.508 99 14.5 105.492 0 113.5 0 128 6.492 128 14.5ZM131.657 80c0-9.829 4.114-13.943 14.172-13.943C155.657 66.057 160 70.171 160 80v33.143c0 9.828-4.343 13.943-14.171 13.943-13.258 0-18.972 5.714-18.972 18.971 0 9.829-4.114 13.943-13.943 13.943H46.857c-9.828 0-13.943-4.114-13.943-13.943 0-13.257-5.714-18.971-18.971-18.971C4.114 127.086 0 122.971 0 113.143V80c0-9.829 4.114-13.943 13.943-13.943C24 66.057 28.114 70.171 28.114 80v33.143c0 13.257 5.486 18.743 18.743 18.743h66.057c13.257 0 18.743-5.486 18.743-18.743V80Z"/></svg><svg xmlns="http://www.w3.org/2000/svg" fill="none" viewBox="0 0 160 160" height="160" width="160" id="b"><path fill="#1F1F1F" d="M62 14.5C62 22.508 55.508 29 47.5 29S33 22.508 33 14.5 39.492 0 47.5 0 62 6.492 62 14.5ZM128 14.5c0 8.008-6.492 14.5-14.5 14.5S99 22.508 99 14.5 105.492 0 113.5 0 128 6.492 128 14.5ZM131.657 80c0-9.829 4.114-13.943 14.172-13.943C155.657 66.057 160 70.171 160 80v33.143c0 9.828-4.343 13.943-14.171 13.943-13.258 0-18.972 5.714-18.972 18.971 0 9.829-4.114 13.943-13.943 13.943H46.857c-9.828 0-13.943-4.114-13.943-13.943 0-13.257-5.714-18.971-18.971-18.971C4.114 127.086 0 122.971 0 113.143V80c0-9.829 4.114-13.943 13.943-13.943C24 66.057 28.114 70.171 28.114 80v33.143c0 13.257 5.486 18.743 18.743 18.743h66.057c13.257 0 18.743-5.486 18.743-18.743V80Z"/></svg></defs><g transform="translate(111.127 105.098) scale(1.70625)" data-name="Union-17.svg"><path fill="transparent" d="M0 0h160v160H0z"/><use xlink:href="#a"/></g><g data-name="Union-17.svg"><g transform="translate(365.693 380.203) scale(1.70625)"><path fill="transparent" d="M0 0h160v160H0z"/><use xlink:href="#b"/></g><g transform="translate(365.693 -119.797) scale(1.70625)"><path fill="transparent" d="M0 0h160v160H0z"/><use xlink:href="#b"/></g><g transform="translate(-134.307 380.203) scale(1.70625)"><path fill="transparent" d="M0 0h160v160H0z"/><use xlink:href="#b"/></g><g transform="translate(-134.307 -119.797) scale(1.70625)"><path fill="transparent" d="M0 0h160v160H0z"/><use xlink:href="#b"/></g></g></svg>