<svg version="1.2" xmlns="http://www.w3.org/2000/svg" viewBox="0 0 48 48" width="48" height="48">
	<style>
		.s0 { fill: #f1f1f1 } 
	</style>
	<path fill-rule="evenodd" class="s0" d="m29.24 45.2c-2.87 2.87-7.52 2.87-10.39 0l-15.57-15.57c-2.87-2.87-2.87-7.52 0-10.39l7.79-7.78c1.43-1.43 3.75-1.43 5.19 0 1.43 1.43 1.43 3.76 0 5.19l-2.6 2.59c-2.86 2.87-2.86 7.52 0 10.39l7.79 7.79c1.43 1.43 3.76 1.43 5.19 0 1.44-1.44 1.44-3.76 0-5.2l-2.6-2.59c-2.86-2.87-2.86-7.52 0-10.39 2.87-2.86 2.87-7.51 0-10.38l-2.59-2.59c-1.44-1.44-1.44-3.76 0-5.19 1.43-1.44 3.76-1.44 5.19 0l18.17 18.16c2.87 2.87 2.87 7.52 0 10.39zm7.79-23.37c-1.44-1.43-3.76-1.43-5.2 0-1.43 1.44-1.43 3.76 0 5.19 1.44 1.44 3.76 1.44 5.2 0 1.43-1.43 1.43-3.75 0-5.19z"/>
</svg>