<svg width="160" height="160" viewBox="0 0 160 160" fill="none" xmlns="http://www.w3.org/2000/svg">
<path d="M62 14.5C62 22.5081 55.5081 29 47.5 29C39.4919 29 33 22.5081 33 14.5C33 6.49187 39.4919 0 47.5 0C55.5081 0 62 6.49187 62 14.5Z" fill="#1F1F1F"/>
<path d="M128 14.5C128 22.5081 121.508 29 113.5 29C105.492 29 99 22.5081 99 14.5C99 6.49187 105.492 0 113.5 0C121.508 0 128 6.49187 128 14.5Z" fill="#1F1F1F"/>
<path d="M131.657 80C131.657 70.1714 135.771 66.0571 145.829 66.0571C155.657 66.0571 160 70.1714 160 80V113.143C160 122.971 155.657 127.086 145.829 127.086C132.571 127.086 126.857 132.8 126.857 146.057C126.857 155.886 122.743 160 112.914 160H46.8571C37.0286 160 32.9143 155.886 32.9143 146.057C32.9143 132.8 27.2 127.086 13.9429 127.086C4.11429 127.086 0 122.971 0 113.143V80C0 70.1714 4.11429 66.0571 13.9429 66.0571C24 66.0571 28.1143 70.1714 28.1143 80V113.143C28.1143 126.4 33.6 131.886 46.8571 131.886H112.914C126.171 131.886 131.657 126.4 131.657 113.143V80Z" fill="#1F1F1F"/>
</svg>
